<?xml version="1.0" standalone="no"?>
<!DOCTYPE svg PUBLIC "-//W3C//DTD SVG 20010904//EN"
 "http://www.w3.org/TR/2001/REC-SVG-20010904/DTD/svg10.dtd">
<svg version="1.0" xmlns="http://www.w3.org/2000/svg"
 width="512.000000pt" height="512.000000pt" viewBox="0 0 512.000000 512.000000"
 preserveAspectRatio="xMidYMid meet">
<metadata>
Created by potrace 1.16, written by Peter Selinger 2001-2019
</metadata>
<g transform="translate(0.000000,512.000000) scale(0.100000,-0.100000)"
fill="#FFFFFF" stroke="none">
<path d="M335 5104 c-47 -26 -86 -66 -106 -109 -18 -39 -19 -125 -19 -2435 0
-2302 1 -2397 19 -2435 22 -48 60 -87 105 -109 40 -19 134 -21 173 -4 170 75
4287 2348 4336 2394 69 65 85 163 42 251 -30 59 -47 72 -250 186 l-149 84 -17
94 c-10 52 -25 119 -34 149 -47 151 -182 419 -278 550 -57 77 -197 239 -239
276 -106 93 -260 182 -388 223 -150 48 -202 51 -859 51 l-617 0 -775 422 -774
423 -70 2 c-50 2 -78 -1 -100 -13z m2972 -1065 c284 -38 546 -234 664 -495 55
-121 73 -206 72 -344 0 -95 -5 -144 -22 -205 -83 -307 -306 -531 -616 -617
-78 -22 -98 -22 -702 -28 l-623 -5 -77 -75 c-43 -41 -226 -222 -408 -401 -213
-210 -344 -332 -370 -344 -92 -43 -196 -28 -271 38 -53 47 -83 101 -90 165 -6
50 213 1574 242 1687 84 325 364 576 697 625 83 12 1414 12 1504 -1z m988
-1365 c24 -165 41 -302 37 -306 -4 -3 -209 -119 -457 -256 l-450 -251 -70 68
c-115 112 -40 101 -697 101 l-577 0 53 50 53 50 555 0 c600 0 646 3 798 55
145 49 287 135 399 240 123 115 250 328 288 482 10 39 19 70 21 68 2 -1 23
-137 47 -301z"/>
<path d="M1754 3611 c-43 -26 -54 -66 -54 -192 l0 -109 -117 0 c-99 0 -123 -3
-149 -19 -66 -40 -66 -142 0 -182 26 -16 50 -19 149 -19 l117 0 0 -110 c0
-127 13 -171 59 -194 53 -28 107 -17 143 28 15 17 18 43 18 149 l0 127 121 0
c69 0 130 5 142 11 39 20 57 51 57 99 0 48 -18 79 -57 99 -12 6 -73 11 -142
11 l-121 0 0 128 c0 105 -3 131 -18 148 -38 47 -96 57 -148 25z"/>
<path d="M3255 3618 c-37 -20 -55 -51 -55 -98 0 -28 7 -53 18 -66 78 -97 231
-16 192 102 -20 60 -100 92 -155 62z"/>
<path d="M2935 3298 c-37 -20 -55 -51 -55 -98 0 -28 7 -53 18 -66 78 -97 231
-16 192 102 -20 60 -100 92 -155 62z"/>
<path d="M3575 3298 c-37 -20 -55 -51 -55 -98 0 -28 7 -53 18 -66 78 -97 231
-16 192 102 -20 60 -100 92 -155 62z"/>
<path d="M3255 2978 c-37 -20 -55 -51 -55 -98 0 -28 7 -53 18 -66 78 -97 231
-16 192 102 -20 60 -100 92 -155 62z"/>
</g>
</svg>
